<svg width="170" height="49" viewBox="0 0 170 49" fill="none" xmlns="http://www.w3.org/2000/svg">
<path d="M63.344 11.56C63.472 11.6453 63.536 11.7733 63.536 11.944C63.536 12.072 63.408 12.264 63.152 12.52C61.744 14.056 60.4853 15.8267 59.376 17.832C58.2667 19.7947 57.328 21.9493 56.56 24.296C55.792 26.6427 55.1947 29.1173 54.768 31.72C54.3413 34.3227 54.128 36.9893 54.128 39.72C54.128 41.768 54.3627 43.368 54.832 44.52C55.344 45.6293 56.2187 46.184 57.456 46.184C59.1627 46.184 60.784 44.9893 62.32 42.6C62.448 42.5147 62.576 42.5147 62.704 42.6C62.832 42.6853 62.8747 42.8133 62.832 42.984C61.7227 44.776 60.4853 46.2267 59.12 47.336C57.7973 48.4453 56.56 49 55.408 49C53.7013 49 52.4 48.3387 51.504 47.016C50.6507 45.6933 50.224 43.816 50.224 41.384C50.224 37.9707 50.608 34.4933 51.376 30.952C49.3707 30.952 47.3867 30.9733 45.424 31.016C43.504 31.0587 41.6267 31.1227 39.792 31.208C38.384 32.7013 37.0187 34.1093 35.696 35.432C34.416 36.7547 33.1573 37.9707 31.92 39.08C28.5067 42.1947 24.9867 44.6267 21.36 46.376C17.776 48.1253 13.8293 49 9.52 49C7.216 49 5.36 48.488 3.952 47.464C2.58667 46.44 1.66933 45.1387 1.2 43.56C0.773333 41.9813 0.794667 40.2533 1.264 38.376C1.73333 36.4987 2.672 34.6853 4.08 32.936C4.208 32.8507 4.35733 32.872 4.528 33C4.69867 33.0853 4.76267 33.2773 4.72 33.576C3.73867 34.6427 3.184 35.88 3.056 37.288C2.97067 38.6533 3.26933 39.9547 3.952 41.192C4.67733 42.3867 5.78667 43.4107 7.28 44.264C8.77333 45.0747 10.6507 45.48 12.912 45.48C16.5387 45.48 19.9307 44.7333 23.088 43.24C26.288 41.7467 29.296 39.72 32.112 37.16C33.0933 36.3067 34.0747 35.3893 35.056 34.408C36.0373 33.4267 37.0613 32.4027 38.128 31.336C36.6347 31.4213 35.2267 31.528 33.904 31.656C32.5813 31.7413 31.344 31.8693 30.192 32.04C29.9787 31.9973 29.936 31.8907 30.064 31.72C30.192 31.5493 30.384 31.3787 30.64 31.208C30.896 30.9947 31.1947 30.824 31.536 30.696C31.92 30.5253 32.2827 30.4187 32.624 30.376C33.1787 30.3333 34.032 30.312 35.184 30.312C36.3787 30.2693 37.7227 30.2267 39.216 30.184C41.6053 27.7093 44.2507 25.0427 47.152 22.184C50.096 19.2827 53.5733 16.2533 57.584 13.096C54.7253 12.1573 51.76 11.3893 48.688 10.792C45.6587 10.152 42.736 9.832 39.92 9.832C36.72 9.832 34.096 10.728 32.048 12.52C30 14.2693 28.7413 17.0427 28.272 20.84C28.1867 21.0533 28.0587 21.1387 27.888 21.096C27.76 21.0533 27.6747 20.9253 27.632 20.712C28.144 16.5307 29.7013 13.3307 32.304 11.112C34.9067 8.89333 38.2773 7.784 42.416 7.784C44.1653 7.784 46 7.912 47.92 8.168C49.84 8.38133 51.7173 8.68 53.552 9.064C55.4293 9.40533 57.2 9.81066 58.864 10.28C60.5707 10.7067 62.064 11.1333 63.344 11.56ZM51.568 30.12C52.2507 27.048 53.2107 24.0613 54.448 21.16C55.6853 18.2587 57.2 15.592 58.992 13.16C55.2373 16.1893 51.888 19.1333 48.944 21.992C46 24.8507 43.2907 27.5813 40.816 30.184C42.864 30.1413 44.8693 30.12 46.832 30.12C48.8373 30.12 50.416 30.12 51.568 30.12ZM71.6415 34.472C71.6415 35.112 71.5775 35.8373 71.4495 36.648C71.3215 37.4587 71.1508 38.2907 70.9375 39.144C71.7908 37.096 72.7295 35.496 73.7535 34.344C74.7775 33.192 75.8868 32.616 77.0815 32.616C77.7215 32.616 78.2122 32.7653 78.5535 33.064C78.8948 33.3627 79.0655 33.7467 79.0655 34.216C79.0655 34.6427 78.8948 35.1973 78.5535 35.88C78.2548 36.5627 77.9988 37.032 77.7855 37.288C77.7002 37.3307 77.6148 37.3307 77.5295 37.288C77.4442 37.2027 77.4015 37.1173 77.4015 37.032C77.4015 36.7333 77.2735 36.4773 77.0175 36.264C76.8042 36.0507 76.4628 35.944 75.9935 35.944C74.5002 35.944 73.1348 36.968 71.8975 39.016C70.7028 41.0213 69.5935 43.9227 68.5695 47.72C68.5268 47.9333 68.3775 48.1253 68.1215 48.296C67.8655 48.424 67.5668 48.552 67.2255 48.68C66.9268 48.7653 66.6068 48.8507 66.2655 48.936C65.9242 48.9787 65.6255 49 65.3695 49C64.9002 49 64.7722 48.744 64.9855 48.232C65.3695 47.336 65.7322 46.376 66.0735 45.352C66.4575 44.2853 66.7988 43.2187 67.0975 42.152C67.3962 41.0853 67.6522 40.0613 67.8655 39.08C68.0788 38.056 68.2495 37.1173 68.3775 36.264C68.4628 35.624 68.4842 35.1333 68.4415 34.792C68.4415 34.4507 68.2708 34.28 67.9295 34.28C67.5028 34.28 67.0548 34.472 66.5855 34.856C66.1588 35.1973 65.7535 35.6453 65.3695 36.2C65.1988 36.328 65.0282 36.3493 64.8575 36.264C64.7295 36.136 64.7082 35.9867 64.7935 35.816C65.0495 35.4747 65.3482 35.1333 65.6895 34.792C66.0735 34.408 66.4788 34.0667 66.9055 33.768C67.3748 33.4267 67.8442 33.1493 68.3135 32.936C68.8255 32.7227 69.3375 32.616 69.8495 32.616C70.5322 32.616 71.0015 32.7867 71.2575 33.128C71.5135 33.4267 71.6415 33.8747 71.6415 34.472ZM101.332 35.56C101.332 34.664 101.012 34.216 100.372 34.216C99.092 34.216 97.5773 35.4107 95.828 37.8C94.0787 40.1467 92.4573 43.5173 90.964 47.912C90.8787 48.168 90.516 48.424 89.876 48.68C89.2787 48.8933 88.7027 49 88.148 49C87.636 49 87.444 48.808 87.572 48.424C87.828 47.656 88.1693 46.696 88.596 45.544C89.0653 44.392 89.492 43.2187 89.876 42.024C90.3027 40.7867 90.6653 39.6347 90.964 38.568C91.2627 37.4587 91.412 36.6053 91.412 36.008C91.412 34.856 91.0493 34.28 90.324 34.28C89.2147 34.28 87.8067 35.432 86.1 37.736C84.436 39.9973 82.8147 43.3893 81.236 47.912C81.1507 48.168 80.8093 48.424 80.212 48.68C79.6147 48.8933 79.0813 49 78.612 49C78.3987 49 78.228 48.9573 78.1 48.872C77.972 48.7867 77.9507 48.6373 78.036 48.424C78.3773 47.4853 78.74 46.4613 79.124 45.352C79.508 44.2 79.892 43.048 80.276 41.896C80.66 40.744 81.0013 39.6133 81.3 38.504C81.6413 37.3947 81.94 36.3493 82.196 35.368C82.324 34.6 82.196 34.216 81.812 34.216C81.4707 34.216 81.0653 34.4507 80.596 34.92C80.1267 35.3893 79.6573 35.944 79.188 36.584C79.06 36.6693 78.932 36.6693 78.804 36.584C78.676 36.456 78.6547 36.328 78.74 36.2C79.38 35.2187 80.148 34.3867 81.044 33.704C81.94 32.9787 82.9 32.616 83.924 32.616C84.6067 32.616 85.0547 32.8293 85.268 33.256C85.524 33.6827 85.588 34.1947 85.46 34.792C85.2893 35.7307 85.1187 36.52 84.948 37.16C84.7773 37.8 84.5427 38.5253 84.244 39.336C85.3533 37.3733 86.5693 35.7733 87.892 34.536C89.2573 33.256 90.708 32.616 92.244 32.616C93.012 32.616 93.588 32.8293 93.972 33.256C94.3987 33.6827 94.612 34.1947 94.612 34.792C94.612 36.456 94.3133 38.1413 93.716 39.848C95.0813 37.5013 96.404 35.7093 97.684 34.472C99.0067 33.2347 100.585 32.616 102.42 32.616C103.273 32.616 103.871 32.8507 104.212 33.32C104.596 33.7467 104.788 34.1947 104.788 34.664C104.788 35.3893 104.617 36.2 104.276 37.096C103.977 37.9493 103.615 38.8667 103.188 39.848C102.804 40.7867 102.441 41.7467 102.1 42.728C101.801 43.6667 101.652 44.584 101.652 45.48C101.652 46.5467 101.993 47.08 102.676 47.08C103.359 47.08 104.276 46.376 105.428 44.968C105.556 44.8827 105.663 44.904 105.748 45.032C105.876 45.16 105.897 45.3093 105.812 45.48C104.959 46.5467 104.084 47.4 103.188 48.04C102.292 48.68 101.417 49 100.564 49C99.156 49 98.452 48.1893 98.452 46.568C98.452 45.544 98.6013 44.52 98.9 43.496C99.1987 42.4293 99.5187 41.4267 99.86 40.488C100.244 39.5067 100.585 38.5893 100.884 37.736C101.183 36.8827 101.332 36.1573 101.332 35.56ZM125.519 44.968C125.604 44.8827 125.711 44.8827 125.839 44.968C125.967 45.0533 126.009 45.1813 125.967 45.352C125.199 46.4613 124.345 47.3573 123.407 48.04C122.468 48.68 121.572 49 120.719 49C119.737 49 119.097 48.3173 118.799 46.952C118.543 45.544 118.692 43.88 119.247 41.96C118.095 43.7947 116.836 45.3733 115.47 46.696C114.148 47.976 112.74 48.744 111.247 49C110.223 49 109.433 48.5307 108.879 47.592C108.324 46.6533 108.047 45.5653 108.047 44.328C108.047 42.92 108.388 41.5333 109.071 40.168C109.753 38.76 110.649 37.5013 111.759 36.392C112.911 35.2827 114.169 34.3867 115.535 33.704C116.943 32.9787 118.351 32.616 119.759 32.616C121.252 32.616 122.425 32.9787 123.279 33.704C123.705 33.4053 124.239 33.1493 124.878 32.936C125.561 32.7227 126.159 32.616 126.671 32.616C126.841 32.616 126.927 32.7227 126.927 32.936C125.945 34.1307 125.092 35.4533 124.367 36.904C123.684 38.312 123.151 39.6773 122.767 41C122.383 42.28 122.148 43.432 122.062 44.456C121.977 45.48 122.063 46.184 122.319 46.568C122.532 46.824 122.895 46.9093 123.407 46.824C123.919 46.696 124.623 46.0773 125.519 44.968ZM113.231 46.632C113.743 46.632 114.361 46.312 115.087 45.672C115.855 45.032 116.644 44.1787 117.455 43.112C118.265 42.0453 119.055 40.8507 119.823 39.528C120.633 38.2053 121.337 36.8613 121.935 35.496C121.764 34.9413 121.359 34.4933 120.719 34.152C120.121 33.8107 119.417 33.64 118.607 33.64C117.625 33.64 116.708 33.896 115.855 34.408C115.001 34.8773 114.255 35.56 113.615 36.456C113.017 37.3093 112.527 38.3547 112.143 39.592C111.801 40.7867 111.631 42.1093 111.631 43.56C111.631 44.4987 111.78 45.2453 112.079 45.8C112.42 46.3547 112.804 46.632 113.231 46.632ZM166.552 0.615997C167.192 0.615997 167.704 0.786664 168.088 1.128C168.515 1.46933 168.813 1.91733 168.984 2.472C169.155 3.02666 169.197 3.66666 169.112 4.392C169.027 5.07466 168.813 5.75733 168.472 6.44C168.387 6.52533 168.28 6.568 168.152 6.568C168.024 6.52533 167.939 6.41866 167.896 6.248C167.981 5.608 167.811 5.13866 167.384 4.84C166.957 4.49866 166.36 4.328 165.592 4.328C163.288 4.328 161.069 5.096 158.936 6.632C156.803 8.168 154.776 10.536 152.856 13.736C150.979 16.8933 149.229 20.9253 147.608 25.832C146.029 30.696 144.6 36.4987 143.32 43.24C143.107 44.1787 143.085 44.9893 143.256 45.672C143.427 46.312 143.747 46.632 144.216 46.632C144.685 46.632 145.133 46.44 145.56 46.056C145.987 45.672 146.371 45.1813 146.712 44.584C146.797 44.4987 146.904 44.4987 147.032 44.584C147.203 44.6693 147.267 44.7973 147.224 44.968C147.011 45.3947 146.691 45.8427 146.264 46.312C145.88 46.7813 145.432 47.2293 144.92 47.656C144.451 48.04 143.939 48.36 143.384 48.616C142.872 48.872 142.403 49 141.976 49C141.037 49 140.376 48.6587 139.992 47.976C139.608 47.2933 139.459 46.5253 139.544 45.672C139.629 44.9467 139.736 44.264 139.864 43.624C139.992 42.984 140.141 42.3013 140.312 41.576C139.459 43.4107 138.264 45.0107 136.728 46.376C135.192 47.6987 133.677 48.5733 132.184 49C131.203 49 130.413 48.6373 129.816 47.912C129.219 47.1867 128.92 46.248 128.92 45.096C128.92 43.432 129.219 41.8533 129.816 40.36C130.413 38.824 131.224 37.48 132.248 36.328C133.272 35.176 134.488 34.2587 135.896 33.576C137.304 32.8933 138.819 32.552 140.44 32.552C141.336 32.552 142.125 32.7013 142.808 33C143.576 30.696 144.493 28.3067 145.56 25.832C146.627 23.3147 147.8 20.8613 149.08 18.472C150.36 16.0827 151.704 13.8 153.112 11.624C154.563 9.448 156.035 7.54933 157.528 5.928C159.021 4.30666 160.536 3.02666 162.072 2.088C163.608 1.10666 165.101 0.615997 166.552 0.615997ZM134.232 46.504C134.701 46.504 135.256 46.2693 135.896 45.8C136.536 45.288 137.197 44.6267 137.88 43.816C138.563 42.9627 139.203 42.0027 139.8 40.936C140.397 39.8267 140.909 38.6533 141.336 37.416C141.507 37.032 141.656 36.648 141.784 36.264C141.912 35.8373 142.019 35.432 142.104 35.048C141.933 34.536 141.592 34.1733 141.08 33.96C140.611 33.704 140.077 33.576 139.48 33.576C138.584 33.576 137.709 33.8533 136.856 34.408C136.003 34.92 135.256 35.6453 134.616 36.584C133.976 37.5227 133.443 38.632 133.016 39.912C132.632 41.192 132.44 42.6 132.44 44.136C132.44 44.8187 132.589 45.3947 132.888 45.864C133.229 46.2907 133.677 46.504 134.232 46.504ZM166.769 44.968C166.854 44.8827 166.961 44.8827 167.089 44.968C167.217 45.0533 167.259 45.1813 167.217 45.352C166.449 46.4613 165.595 47.3573 164.657 48.04C163.718 48.68 162.822 49 161.969 49C160.987 49 160.347 48.3173 160.049 46.952C159.793 45.544 159.942 43.88 160.497 41.96C159.345 43.7947 158.086 45.3733 156.72 46.696C155.398 47.976 153.99 48.744 152.497 49C151.473 49 150.683 48.5307 150.129 47.592C149.574 46.6533 149.297 45.5653 149.297 44.328C149.297 42.92 149.638 41.5333 150.321 40.168C151.003 38.76 151.899 37.5013 153.009 36.392C154.161 35.2827 155.419 34.3867 156.785 33.704C158.193 32.9787 159.601 32.616 161.009 32.616C162.502 32.616 163.675 32.9787 164.529 33.704C164.955 33.4053 165.489 33.1493 166.128 32.936C166.811 32.7227 167.409 32.616 167.921 32.616C168.091 32.616 168.177 32.7227 168.177 32.936C167.195 34.1307 166.342 35.4533 165.617 36.904C164.934 38.312 164.401 39.6773 164.017 41C163.633 42.28 163.398 43.432 163.312 44.456C163.227 45.48 163.313 46.184 163.569 46.568C163.782 46.824 164.145 46.9093 164.657 46.824C165.169 46.696 165.873 46.0773 166.769 44.968ZM154.481 46.632C154.993 46.632 155.611 46.312 156.337 45.672C157.105 45.032 157.894 44.1787 158.705 43.112C159.515 42.0453 160.305 40.8507 161.073 39.528C161.883 38.2053 162.587 36.8613 163.185 35.496C163.014 34.9413 162.609 34.4933 161.969 34.152C161.371 33.8107 160.667 33.64 159.857 33.64C158.875 33.64 157.958 33.896 157.105 34.408C156.251 34.8773 155.505 35.56 154.865 36.456C154.267 37.3093 153.777 38.3547 153.393 39.592C153.051 40.7867 152.881 42.1093 152.881 43.56C152.881 44.4987 153.03 45.2453 153.329 45.8C153.67 46.3547 154.054 46.632 154.481 46.632Z" fill="black"/>
</svg>
