<svg width="64" height="42" viewBox="0 0 64 42" fill="none" xmlns="http://www.w3.org/2000/svg">
<path d="M63.344 4.56C63.472 4.64533 63.536 4.77333 63.536 4.944C63.536 5.072 63.408 5.264 63.152 5.52C61.744 7.056 60.4853 8.82666 59.376 10.832C58.2667 12.7947 57.328 14.9493 56.56 17.296C55.792 19.6427 55.1947 22.1173 54.768 24.72C54.3413 27.3227 54.128 29.9893 54.128 32.72C54.128 34.768 54.3627 36.368 54.832 37.52C55.344 38.6293 56.2187 39.184 57.456 39.184C59.1627 39.184 60.784 37.9893 62.32 35.6C62.448 35.5147 62.576 35.5147 62.704 35.6C62.832 35.6853 62.8747 35.8133 62.832 35.984C61.7227 37.776 60.4853 39.2267 59.12 40.336C57.7973 41.4453 56.56 42 55.408 42C53.7013 42 52.4 41.3387 51.504 40.016C50.6507 38.6933 50.224 36.816 50.224 34.384C50.224 30.9707 50.608 27.4933 51.376 23.952C49.3707 23.952 47.3867 23.9733 45.424 24.016C43.504 24.0587 41.6267 24.1227 39.792 24.208C38.384 25.7013 37.0187 27.1093 35.696 28.432C34.416 29.7547 33.1573 30.9707 31.92 32.08C28.5067 35.1947 24.9867 37.6267 21.36 39.376C17.776 41.1253 13.8293 42 9.52 42C7.216 42 5.36 41.488 3.952 40.464C2.58667 39.44 1.66933 38.1387 1.2 36.56C0.773333 34.9813 0.794667 33.2533 1.264 31.376C1.73333 29.4987 2.672 27.6853 4.08 25.936C4.208 25.8507 4.35733 25.872 4.528 26C4.69867 26.0853 4.76267 26.2773 4.72 26.576C3.73867 27.6427 3.184 28.88 3.056 30.288C2.97067 31.6533 3.26933 32.9547 3.952 34.192C4.67733 35.3867 5.78667 36.4107 7.28 37.264C8.77333 38.0747 10.6507 38.48 12.912 38.48C16.5387 38.48 19.9307 37.7333 23.088 36.24C26.288 34.7467 29.296 32.72 32.112 30.16C33.0933 29.3067 34.0747 28.3893 35.056 27.408C36.0373 26.4267 37.0613 25.4027 38.128 24.336C36.6347 24.4213 35.2267 24.528 33.904 24.656C32.5813 24.7413 31.344 24.8693 30.192 25.04C29.9787 24.9973 29.936 24.8907 30.064 24.72C30.192 24.5493 30.384 24.3787 30.64 24.208C30.896 23.9947 31.1947 23.824 31.536 23.696C31.92 23.5253 32.2827 23.4187 32.624 23.376C33.1787 23.3333 34.032 23.312 35.184 23.312C36.3787 23.2693 37.7227 23.2267 39.216 23.184C41.6053 20.7093 44.2507 18.0427 47.152 15.184C50.096 12.2827 53.5733 9.25333 57.584 6.096C54.7253 5.15733 51.76 4.38933 48.688 3.792C45.6587 3.152 42.736 2.832 39.92 2.832C36.72 2.832 34.096 3.728 32.048 5.52C30 7.26933 28.7413 10.0427 28.272 13.84C28.1867 14.0533 28.0587 14.1387 27.888 14.096C27.76 14.0533 27.6747 13.9253 27.632 13.712C28.144 9.53067 29.7013 6.33067 32.304 4.112C34.9067 1.89333 38.2773 0.783997 42.416 0.783997C44.1653 0.783997 46 0.911997 47.92 1.168C49.84 1.38133 51.7173 1.68 53.552 2.064C55.4293 2.40533 57.2 2.81066 58.864 3.28C60.5707 3.70667 62.064 4.13333 63.344 4.56ZM51.568 23.12C52.2507 20.048 53.2107 17.0613 54.448 14.16C55.6853 11.2587 57.2 8.592 58.992 6.16C55.2373 9.18933 51.888 12.1333 48.944 14.992C46 17.8507 43.2907 20.5813 40.816 23.184C42.864 23.1413 44.8693 23.12 46.832 23.12C48.8373 23.12 50.416 23.12 51.568 23.12Z" fill="#D1B000"/>
</svg>
